<?xml version="1.0" encoding="UTF-8" standalone="no"?>
<svg
   xmlns:dc="http://purl.org/dc/elements/1.1/"
   xmlns:cc="http://creativecommons.org/ns#"
   xmlns:rdf="http://www.w3.org/1999/02/22-rdf-syntax-ns#"
   xmlns:svg="http://www.w3.org/2000/svg"
   xmlns="http://www.w3.org/2000/svg"
   xmlns:sodipodi="http://sodipodi.sourceforge.net/DTD/sodipodi-0.dtd"
   xmlns:inkscape="http://www.inkscape.org/namespaces/inkscape"
   sodipodi:docname="cat_rassel.svg"
   inkscape:version="1.0rc1 (09960d6, 2020-04-09)"
   id="svg2238"
   version="1.1"
   viewBox="0 0 87.444672 109.79316"
   height="109.79316mm"
   width="87.444672mm">
  <defs
     id="defs2232" />
  <sodipodi:namedview
     inkscape:window-maximized="0"
     inkscape:window-y="176"
     inkscape:window-x="1330"
     inkscape:window-height="860"
     inkscape:window-width="1057"
     showgrid="false"
     inkscape:document-rotation="0"
     inkscape:current-layer="layer1"
     inkscape:document-units="mm"
     inkscape:cy="352.70452"
     inkscape:cx="106.64066"
     inkscape:zoom="0.77900163"
     inkscape:pageshadow="2"
     inkscape:pageopacity="0.0"
     borderopacity="1.0"
     bordercolor="#666666"
     pagecolor="#ffffff"
     id="base" />
  <metadata
     id="metadata2235">
    <rdf:RDF>
      <cc:Work
         rdf:about="">
        <dc:format>image/svg+xml</dc:format>
        <dc:type
           rdf:resource="http://purl.org/dc/dcmitype/StillImage" />
        <dc:title />
      </cc:Work>
    </rdf:RDF>
  </metadata>
  <g
     id="layer1"
     inkscape:groupmode="layer"
     inkscape:label="Ebene 1"
     transform="translate(-54.527631,-142.95166)">
    <path
       sodipodi:nodetypes="cssccsscc"
       d="m 137.81081,234.78766 c 4.0035,5.28954 6.40297,11.93853 1.11396,15.9457 v 0 c -5.29427,4.00717 -10.94345,1.63412 -14.95219,-3.65595 L 104.39165,215.4657 c -4.00874,-5.29059 -8.723479,-10.85382 -3.43447,-14.86151 v 0 c 5.29427,-4.00664 9.20331,3.00655 13.21205,8.29662 l 23.64158,25.88685"
       style="fill:#cccccc;fill-opacity:1;fill-rule:nonzero;stroke:none;stroke-width:0.0524703"
       id="path2945"
       inkscape:connector-curvature="0" />
    <path
       d="m 116.38054,179.3119 c 0,17.07952 -13.84593,30.92595 -30.926459,30.92595 -17.08053,0 -30.92645,-13.84643 -30.92645,-30.92595 0,-17.07951 13.84592,-30.92593 30.92645,-30.92593 17.080529,0 30.926459,13.84642 30.926459,30.92593"
       style="fill:#f4d39f;fill-opacity:1;fill-rule:nonzero;stroke:none;stroke-width:0.0506992"
       id="path2949"
       inkscape:connector-curvature="0" />
    <path
       d="m 80.454401,195.83265 c 10.73085,-4.90056 23.430209,-14.20753 32.263219,-31.10939 -1.43347,-2.67413 -3.24045,-5.11457 -5.36542,-7.2461 -8.000188,17.48685 -20.038339,26.36479 -30.239209,31.07355 -5.14839,2.36321 -9.81727,3.62557 -13.15867,4.28931 -1.6707,0.33313 -3.00827,0.51484 -3.90672,0.61225 -0.44922,0.0505 -0.7874,0.0777 -1.00948,0.0949 -0.212,0.0161 -0.26247,0.0131 -0.26247,0.0161 l 0.0505,1.42692 c 1.30729,2.21078 2.85685,4.25953 4.64869,6.07308 3.89663,-0.62992 10.01917,-2.0427 16.97959,-5.23066"
       style="fill:#e25458;fill-opacity:1;fill-rule:nonzero;stroke:none;stroke-width:0.0504743"
       id="path2953"
       inkscape:connector-curvature="0" />
  </g>
</svg>
