<?xml version="1.0" encoding="UTF-8" standalone="no"?>
<svg
   xmlns:dc="http://purl.org/dc/elements/1.1/"
   xmlns:cc="http://creativecommons.org/ns#"
   xmlns:rdf="http://www.w3.org/1999/02/22-rdf-syntax-ns#"
   xmlns:svg="http://www.w3.org/2000/svg"
   xmlns="http://www.w3.org/2000/svg"
   xmlns:sodipodi="http://sodipodi.sourceforge.net/DTD/sodipodi-0.dtd"
   xmlns:inkscape="http://www.inkscape.org/namespaces/inkscape"
   inkscape:version="1.0rc1 (09960d6, 2020-04-09)"
   sodipodi:docname="cat_puzzle.svg"
   width="221.22678mm"
   height="206.49199mm"
   viewBox="0 0 221.22678 206.49199"
   version="1.1"
   id="svg43">
  <sodipodi:namedview
     inkscape:current-layer="layer1"
     inkscape:window-maximized="0"
     inkscape:window-y="23"
     inkscape:window-x="619"
     inkscape:cy="663.62439"
     inkscape:cx="444.16394"
     inkscape:zoom="0.40233603"
     showgrid="false"
     id="namedview848"
     inkscape:window-height="1135"
     inkscape:window-width="1143"
     inkscape:pageshadow="2"
     inkscape:pageopacity="0"
     guidetolerance="10"
     gridtolerance="10"
     objecttolerance="10"
     borderopacity="1"
     bordercolor="#666666"
     pagecolor="#ffffff" />
  <defs
     id="defs37" />
  <metadata
     id="metadata40">
    <rdf:RDF>
      <cc:Work
         rdf:about="">
        <dc:format>image/svg+xml</dc:format>
        <dc:type
           rdf:resource="http://purl.org/dc/dcmitype/StillImage" />
        <dc:title />
      </cc:Work>
    </rdf:RDF>
  </metadata>
  <g
     id="layer1"
     transform="translate(28.611759,-39.862017)">
    <path
       id="path26"
       style="fill:#e25458;fill-opacity:1;fill-rule:nonzero;stroke:none;stroke-width:0.0352777"
       d="m 81.457712,72.147248 c -2.01753,-1.9304 -2.12866,-5.369277 0.21167,-7.372347 4.237217,-3.626907 8.115994,-7.303206 7.173027,-13.392855 -1.14688,-7.40657 -8.664217,-12.692239 -16.021741,-11.295592 -9.074154,1.722967 -11.025014,10.070394 -9.306994,18.00295 0.66993,3.0921 -1.62771,5.801787 -4.47781,6.017687 l -29.755386,-10.669762 -0.14428,0.402872 -3.79378,10.57945 -6.60647,18.423471 c -1.90747,2.357257 -5.69665,2.544937 -7.75158,-0.0515 -5.0373197,-6.364817 -12.7246991,-10.158254 -19.8172898,-4.242507 -5.7513392,4.797067 -6.4417292,13.960471 -1.4481602,19.549878 4.1056303,4.594927 9.40859093,3.933467 14.9009806,2.963327 3.1615997,-0.55844 5.8296594,1.93111 5.8356494,4.87435 l -10.42104937,29.06218 27.83980937,9.9829 c 0.0536,0.019 0.10089,0.0462 0.15346,0.067 l 1.75789,0.63041 c 2.85044,-0.21554 5.14738,-2.92593 4.47781,-6.01732 -1.71803,-7.93327 0.23283,-16.2807 9.306976,-18.00331 7.35753,-1.39665 14.87487,3.88902 16.02176,11.29594 0.94297,6.08965 -2.93582,9.76559 -7.17303,13.3925 -2.34033,2.00307 -2.22921,5.44195 -0.21167,7.37235 l 1.74837,0.62724 c 0.055,0.0173 0.10971,0.0268 0.16439,0.0462 l 27.475388,9.85237 10.249244,-28.58311 c 0.49036,-3.4738 -2.18511,-5.85752 -5.824707,-5.2959 -5.512147,0.8502 -10.400584,1.61431 -14.505861,-2.98062 -4.993574,-5.58941 -4.698654,-14.73552 1.05269,-19.53224 7.092944,-5.9161 14.780671,-2.12267 19.817628,4.24215 2.15723,2.72591 6.228287,2.38654 8.023574,-0.31503 l 6.18101,-17.236374 4.1081,-11.457524 0.14429,-0.40287 -29.383908,-10.536414" />
    <path
       id="path24"
       style="fill:#f4d39f;fill-opacity:1;fill-rule:nonzero;stroke:none;stroke-width:0.0352777"
       d="m 163.2504,101.68438 c -2.01376,-1.934027 -2.11884,-5.373187 0.22518,-7.371974 4.24366,-3.61912 8.12951,-7.288067 7.19757,-13.379434 -1.1329,-7.409174 -8.64014,-12.708411 -16.00071,-11.325194 -9.07703,1.70575 -11.04353,10.049714 -9.33987,17.985461 0.66385,3.093147 -1.63871,5.798827 -4.48963,6.009417 l -29.7348,-10.724714 -0.14538,0.40256 -3.81345,10.572594 -6.64025,18.410964 c -1.911607,2.35379 -5.701627,2.53447 -7.751704,-0.0661 -5.025267,-6.37417 -12.705754,-10.18197 -19.809438,-4.27916 -5.760262,4.78646 -6.467368,13.94855 -1.48401,19.54723 4.096817,4.60291 9.401004,3.95084 14.894911,2.99079 3.162767,-0.55251 5.826467,1.94192 5.826617,4.88569 l -10.475014,29.04272 27.821528,10.03432 c 3.67122,1.3238 4.45555,6.16923 1.38894,8.58406 -6.3773,5.0216 -10.18935,12.69934 -4.29104,19.80689 4.78332,5.76276 13.9451,6.47538 19.54631,1.49516 4.60561,-4.09413 3.95654,-9.39847 2.99968,-14.89298 -0.65488,-3.76073 2.99389,-6.82839 6.58456,-5.53356 l 27.45738,9.90308 10.30183,-28.56398 c 0.27132,-3.12221 -2.50155,-5.88536 -5.81482,-5.30662 -5.49406,0.95973 -10.79811,1.61213 -14.89492,-2.99078 -4.98336,-5.5987 -4.27626,-14.76078 1.48401,-19.54726 7.10368,-5.90278 14.78417,-2.095 19.80911,4.27933 2.15219,2.73008 6.22405,2.39766 8.02465,-0.30015 l 6.21241,-17.22494 4.12974,-11.45023 0.14522,-0.40211 -29.36461,-10.5911" />
    <path
       d="m 63.485951,216.96113 c 1.92867,-2.01917 5.367447,-2.13323 7.372527,0.20538 3.630527,4.23414 7.310117,8.10978 13.398951,7.16162 7.405607,-1.15317 12.684904,-8.67501 11.281994,-16.03134 -1.730687,-9.07268 -10.079824,-11.01645 -18.010908,-9.29166 -3.09153,0.67255 -5.803177,-1.62276 -6.021497,-4.47269 l 10.644424,-29.76446 -0.40299,-0.14394 -10.582694,-3.78477 -18.429087,-6.59078 c -2.35887,-1.90547 -2.54978,-5.69449 0.0449,-7.75162 6.36053,-5.04274 10.14741,-12.73335 4.22564,-19.8209 -4.80196,-5.74725 -13.96595,-6.42982 -19.5511,-1.43152 -4.59144,4.10955 -3.92547,9.41194 -2.95065,14.90351 0.56114,3.16112 -1.92615,5.83129 -4.869367,5.8398 L 0.56507763,135.59144 -9.3941228,163.43974 c -0.01898,0.0536 -0.04607,0.10093 -0.0669,0.15352 l -0.6289182,1.75844 c 0.2179903,2.85025 2.9303152,5.14488 6.0211279,4.47268 7.9318157,-1.72477 16.2808981,0.21897 18.0112381,9.29164 1.402913,7.35634 -3.876359,14.87818 -11.2822964,16.03137 -6.0888557,0.94817 -9.7680964,-2.9275 -13.3986076,-7.16163 -2.005074,-2.33862 -5.443849,-2.22457 -7.372531,-0.20537 l -0.625745,1.7489 c -0.01721,0.055 -0.02671,0.10973 -0.04603,0.16442 l -9.828974,27.48378 28.59181563,10.22491 c 3.47421597,0.4874 5.85565367,-2.19011 5.29094467,-5.82922 -0.8548987,-5.51143 -1.6231707,-10.39921 2.968271,-14.50841 5.5851467,-4.99831 14.7315047,-4.71119 19.5331217,1.03607 5.922117,7.0879 2.13525,14.77886 -4.225287,19.82125 -2.72406,2.15955 -2.38123,6.23031 0.32191,8.0233 l 17.241624,6.16634 11.46101,4.09834 0.40299,0.14394 10.51139,-29.39288"
       style="fill:#cccccc;fill-opacity:1;fill-rule:nonzero;stroke:none;stroke-width:0.0352777"
       id="path26-7" />
  </g>
</svg>
