<?xml version="1.0" encoding="UTF-8" standalone="no"?>
<svg
   xmlns:dc="http://purl.org/dc/elements/1.1/"
   xmlns:cc="http://creativecommons.org/ns#"
   xmlns:rdf="http://www.w3.org/1999/02/22-rdf-syntax-ns#"
   xmlns:svg="http://www.w3.org/2000/svg"
   xmlns="http://www.w3.org/2000/svg"
   id="svg3648"
   version="1.1"
   viewBox="0 0 170.42729 155.69258"
   height="155.69258mm"
   width="170.42729mm">
  <defs
     id="defs3642" />
  <metadata
     id="metadata3645">
    <rdf:RDF>
      <cc:Work
         rdf:about="">
        <dc:format>image/svg+xml</dc:format>
        <dc:type
           rdf:resource="http://purl.org/dc/dcmitype/StillImage" />
        <dc:title></dc:title>
      </cc:Work>
    </rdf:RDF>
  </metadata>
  <g
     transform="translate(-22.477928,-54.249725)"
     id="layer1">
    <path
       id="path26"
       style="fill:#e25458;fill-opacity:1;fill-rule:nonzero;stroke:none;stroke-width:0.0247164"
       d="m 107.50415,82.355956 c -1.41357,-1.352512 -1.49144,-3.761922 0.14828,-5.165351 2.96877,-2.541151 5.68638,-5.116906 5.02572,-9.383549 -0.80357,-5.189328 -6.0705,-8.892673 -11.22549,-7.914131 -6.357688,1.207179 -7.724537,7.055711 -6.520824,12.613565 0.469377,2.166443 -1.140438,4.064954 -3.137327,4.216223 l -20.847771,-7.475645 -0.101088,0.282266 -2.65807,7.412371 -4.628746,12.908192 c -1.336448,1.651583 -3.991294,1.78308 -5.431056,-0.03605 -3.529339,-4.459434 -8.915414,-7.117264 -13.884757,-2.972464 -4.029612,3.361009 -4.513325,9.781244 -1.014636,13.697367 2.876562,3.21937 6.592018,2.75592 10.440199,2.07622 2.215138,-0.39129 4.084486,1.35304 4.088682,3.4152 l -7.301388,20.36209 19.505642,6.9944 c 0.03753,0.0132 0.07073,0.0321 0.107519,0.0466 l 1.231647,0.44169 c 1.997126,-0.151 3.606451,-2.05002 3.137326,-4.21596 -1.20372,-5.55837 0.16313,-11.4069 6.520825,-12.61381 5.154972,-0.97855 10.421908,2.72478 11.225464,7.91435 0.660681,4.26668 -2.056949,6.84218 -5.025702,9.38333 -1.639725,1.4034 -1.56187,3.81283 -0.148305,5.16534 l 1.224977,0.43947 c 0.03851,0.012 0.07686,0.0187 0.115179,0.0321 l 19.25036,6.90295 7.18101,-20.02643 c 0.34356,-2.43387 -1.53098,-4.10401 -4.08102,-3.71053 -3.86201,0.59569 -7.28706,1.13105 -10.16341,-2.08832 -3.498681,-3.91617 -3.29205,-10.32429 0.73758,-13.68504 4.96963,-4.14509 10.35592,-1.48724 13.88502,2.9722 1.51142,1.9099 4.36376,1.6721 5.62162,-0.22071 l 4.33065,-12.076483 2.87829,-8.027582 0.10142,-0.282267 -20.58746,-7.382217" />
    <path
       id="path24"
       style="fill:#f4d39f;fill-opacity:1;fill-rule:nonzero;stroke:none;stroke-width:0.0247164"
       d="m 164.81122,103.05082 c -1.41091,-1.35508 -1.48452,-3.764674 0.15779,-5.165102 2.97326,-2.535696 5.69585,-5.106295 5.04289,-9.374145 -0.79374,-5.191153 -6.05362,-8.904003 -11.21071,-7.934868 -6.35973,1.195115 -7.73754,7.041218 -6.54388,12.601304 0.46511,2.167179 -1.14815,4.062883 -3.14561,4.210431 l -20.83336,-7.514146 -0.10224,0.282048 -2.67187,7.407567 -4.65242,12.899491 c -1.33932,1.64913 -3.99477,1.77573 -5.43111,-0.046 -3.52092,-4.46603 -8.90217,-7.13395 -13.87929,-2.99819 -4.035855,3.3536 -4.531284,9.77291 -1.03976,13.69555 2.87039,3.22497 6.58673,2.76812 10.43598,2.09546 2.21594,-0.3871 4.08225,1.36059 4.08235,3.4231 l -7.3392,20.34844 19.49284,7.03045 c 2.57219,0.92752 3.12172,4.32242 0.97316,6.01433 -4.46821,3.51834 -7.13909,8.89765 -3.00649,13.87746 3.35138,4.03764 9.77045,4.53691 13.69489,1.04759 3.22687,-2.8685 2.77209,-6.58494 2.10171,-10.43459 -0.45885,-2.63492 2.09761,-4.78425 4.61337,-3.87704 l 19.23772,6.93847 7.21785,-20.01302 c 0.19011,-2.18754 -1.7527,-4.12351 -4.07407,-3.71802 -3.84938,0.67242 -7.56559,1.12952 -10.43598,-2.09546 -3.49153,-3.92266 -2.9961,-10.34197 1.03977,-13.69556 4.9771,-4.13573 10.35837,-1.46785 13.87902,2.99826 1.5079,1.91279 4.3608,1.67989 5.62238,-0.2103 l 4.35265,-12.06846 2.89347,-8.02245 0.10213,-0.28175 -20.574,-7.42056" />
    <path
       d="m 94.912406,183.81818 c 1.351301,-1.4147 3.760633,-1.49462 5.165474,0.14389 2.54371,2.96661 5.12177,5.68205 9.38784,5.01771 5.18866,-0.80794 8.88753,-6.07802 7.90459,-11.23217 -1.21257,-6.35667 -7.06229,-7.71857 -12.61913,-6.5101 -2.16607,0.47123 -4.06594,-1.13694 -4.21892,-3.13372 l 7.45792,-20.85412 -0.28235,-0.10122 -7.41466,-2.65174 -12.912123,-4.61776 c -1.652711,-1.33503 -1.786467,-3.98977 0.03145,-5.43107 4.45643,-3.53313 7.109671,-8.92148 2.960645,-13.88729 -3.36444,-4.02674 -9.78508,-4.50499 -13.698251,-1.00298 -3.21694,2.87931 -2.750337,6.59435 -2.067339,10.44197 0.393157,2.21479 -1.349534,4.08563 -3.411665,4.09159 l -20.368272,-7.28403 -6.977797,19.51159 c -0.01331,0.0373 -0.03227,0.0703 -0.04687,0.10755 l -0.440643,1.23205 c 0.152733,1.997 2.053091,3.6047 4.218634,3.13371 5.557336,-1.20843 11.407024,0.15342 12.619368,6.51009 0.982932,5.15416 -2.715927,10.42426 -7.904811,11.23222 -4.266088,0.66432 -6.843906,-2.05114 -9.38758,-5.01774 -1.404835,-1.63853 -3.814172,-1.5586 -5.16548,-0.14387 l -0.438421,1.22534 c -0.01208,0.0383 -0.01869,0.0766 -0.03224,0.11518 l -6.886558,19.25622 20.032526,7.16396 c 2.434171,0.34148 4.102697,-1.53448 3.707041,-4.08419 -0.598974,-3.86152 -1.137257,-7.28609 2.079684,-10.16514 3.913171,-3.50202 10.32146,-3.30085 13.685658,0.72589 4.149264,4.96609 1.49604,10.35467 -2.960399,13.88755 -1.908581,1.51307 -1.668381,4.3652 0.225543,5.62143 l 12.080147,4.32038 8.030019,2.87145 0.28235,0.10122 7.364684,-20.59381"
       style="fill:#cccccc;fill-opacity:1;fill-rule:nonzero;stroke:none;stroke-width:0.0247164"
       id="path26-7" />
  </g>
</svg>
