<?xml version="1.0" encoding="UTF-8" standalone="no"?>
<svg
   xmlns:dc="http://purl.org/dc/elements/1.1/"
   xmlns:cc="http://creativecommons.org/ns#"
   xmlns:rdf="http://www.w3.org/1999/02/22-rdf-syntax-ns#"
   xmlns:svg="http://www.w3.org/2000/svg"
   xmlns="http://www.w3.org/2000/svg"
   xmlns:sodipodi="http://sodipodi.sourceforge.net/DTD/sodipodi-0.dtd"
   xmlns:inkscape="http://www.inkscape.org/namespaces/inkscape"
   inkscape:version="1.0rc1 (09960d6, 2020-04-09)"
   sodipodi:docname="cat_rassel.svg"
   width="170.42729mm"
   height="155.69258mm"
   viewBox="0 0 170.42729 155.69258"
   version="1.1"
   id="svg3648">
  <sodipodi:namedview
     inkscape:current-layer="svg3648"
     inkscape:window-maximized="0"
     inkscape:window-y="23"
     inkscape:window-x="0"
     inkscape:cy="294.2222"
     inkscape:cx="56.892537"
     inkscape:zoom="0.53361031"
     showgrid="false"
     id="namedview848"
     inkscape:window-height="774"
     inkscape:window-width="1329"
     inkscape:pageshadow="2"
     inkscape:pageopacity="0"
     guidetolerance="10"
     gridtolerance="10"
     objecttolerance="10"
     borderopacity="1"
     bordercolor="#666666"
     pagecolor="#ffffff" />
  <defs
     id="defs3642" />
  <metadata
     id="metadata3645">
    <rdf:RDF>
      <cc:Work
         rdf:about="">
        <dc:format>image/svg+xml</dc:format>
        <dc:type
           rdf:resource="http://purl.org/dc/dcmitype/StillImage" />
        <dc:title />
      </cc:Work>
    </rdf:RDF>
  </metadata>
  <g
     id="layer1"
     transform="matrix(1.102322,0,0,1.102322,-32.218806,-66.886856)">
    <path
       inkscape:connector-curvature="0"
       id="path2945"
       style="fill:#cccccc;fill-opacity:1;fill-rule:nonzero;stroke:none;stroke-width:0.060511"
       d="m 155.04291,171.4299 c 4.61701,6.1001 7.38418,13.76802 1.28468,18.38925 v 0 c -6.1056,4.62125 -12.62049,1.88454 -17.24354,-4.21619 l -22.58158,-36.45601 c -4.62305,-6.10134 -10.06027,-12.51708 -3.96077,-17.13894 v 0 c 6.10558,-4.62063 10.61366,3.46728 15.23671,9.56802 l 27.2645,29.85387" />
    <path
       inkscape:connector-curvature="0"
       id="path2949"
       style="fill:#f4d39f;fill-opacity:1;fill-rule:nonzero;stroke:none;stroke-width:0.0584686"
       d="m 130.3286,107.45284 c 0,19.69683 -15.96774,35.66512 -35.665719,35.66512 -19.698005,0 -35.665721,-15.96829 -35.665721,-35.66512 0,-19.696871 15.967716,-35.665163 35.665721,-35.665163 19.697979,0 35.665719,15.968292 35.665719,35.665163" />
    <path
       inkscape:connector-curvature="0"
       id="path2953"
       style="fill:#e25458;fill-opacity:1;fill-rule:nonzero;stroke:none;stroke-width:0.0582091"
       d="m 88.897034,126.50528 c 12.375256,-5.65154 27.020686,-16.38475 37.207306,-35.876732 -1.65313,-3.083923 -3.73701,-5.898345 -6.18762,-8.356516 -9.22616,20.166578 -23.109079,30.405058 -34.873144,35.835388 -5.937347,2.72536 -11.321702,4.18117 -15.175149,4.94664 -1.926724,0.38417 -3.469267,0.59373 -4.505398,0.70607 -0.51806,0.0583 -0.908065,0.0897 -1.164177,0.1094 -0.244486,0.0185 -0.302691,0.015 -0.302691,0.0185 l 0.05825,1.6456 c 1.507623,2.54955 3.294642,4.91229 5.36107,7.00374 4.493762,-0.72645 11.554541,-2.35573 19.581598,-6.03222" />
  </g>
</svg>
