<?xml version="1.0" encoding="UTF-8" standalone="no"?>
<svg
   xmlns:dc="http://purl.org/dc/elements/1.1/"
   xmlns:cc="http://creativecommons.org/ns#"
   xmlns:rdf="http://www.w3.org/1999/02/22-rdf-syntax-ns#"
   xmlns:svg="http://www.w3.org/2000/svg"
   xmlns="http://www.w3.org/2000/svg"
   xmlns:sodipodi="http://sodipodi.sourceforge.net/DTD/sodipodi-0.dtd"
   xmlns:inkscape="http://www.inkscape.org/namespaces/inkscape"
   width="170.42729mm"
   height="155.69258mm"
   viewBox="0 0 170.42729 155.69258"
   version="1.1"
   id="svg3648"
   inkscape:version="1.0rc1 (09960d6, 2020-04-09)"
   sodipodi:docname="cat_ordner.svg">
  <defs
     id="defs3642" />
  <sodipodi:namedview
     id="base"
     pagecolor="#ffffff"
     bordercolor="#666666"
     borderopacity="1.0"
     inkscape:pageopacity="0.0"
     inkscape:pageshadow="2"
     inkscape:zoom="0.74549476"
     inkscape:cx="452.17711"
     inkscape:cy="537.58569"
     inkscape:document-units="mm"
     inkscape:current-layer="layer1"
     inkscape:document-rotation="0"
     showgrid="false"
     inkscape:window-width="1469"
     inkscape:window-height="1174"
     inkscape:window-x="916"
     inkscape:window-y="23"
     inkscape:window-maximized="0"
     showguides="false" />
  <metadata
     id="metadata3645">
    <rdf:RDF>
      <cc:Work
         rdf:about="">
        <dc:format>image/svg+xml</dc:format>
        <dc:type
           rdf:resource="http://purl.org/dc/dcmitype/StillImage" />
        <dc:title />
      </cc:Work>
    </rdf:RDF>
  </metadata>
  <g
     inkscape:label="Ebene 1"
     inkscape:groupmode="layer"
     id="layer1"
     transform="translate(-22.477928,-54.249725)">
    <path
       id="path4227"
       style="fill:#f4d39f;fill-opacity:1;fill-rule:evenodd;stroke:none;stroke-width:0.031285"
       d="M 36.944185,72.803323 V 72.9431 c -0.874175,0.203168 -1.656989,0.649004 -2.271219,1.263468 -0.85533,0.855021 -1.386287,2.036485 -1.386287,3.337634 V 185.44652 c 0,0.7451 0.303532,1.42126 0.792365,1.9101 0.488816,0.48882 1.165336,0.79236 1.910549,0.79236 h 34.636142 v -0.0165 h 0.954131 c 0.74521,0 1.422032,-0.30353 1.911016,-0.79236 0.488674,-0.48883 0.792357,-1.165 0.792357,-1.9101 V 77.527705 c 0,-1.301143 -0.530958,-2.483072 -1.386288,-3.338091 -0.614132,-0.614353 -1.397209,-1.05979 -2.271216,-1.263014 v -0.106777 h -0.686966 c -0.125539,-0.01009 -0.251849,-0.0165 -0.379906,-0.0165 z m 7.937826,21.922117 h 18.110196 c 0.884914,0.114516 1.56914,0.869209 1.56914,1.784982 0,0.99519 -0.806767,1.80241 -1.801937,1.80241 H 44.650125 C 43.76467,98.19876 43.07961,97.443774 43.07961,96.527387 c 0,-0.994878 0.807131,-1.801947 1.802401,-1.801947 z m 0,12.07703 h 18.109282 c 0.885358,0.11406 1.570054,0.86906 1.570054,1.78544 0,0.99519 -0.806767,1.80195 -1.801937,1.80195 H 44.649203 c -0.884994,-0.11447 -1.569593,-0.86891 -1.569593,-1.78499 0,-0.99518 0.807131,-1.8024 1.802401,-1.8024 z m 0,12.07744 h 18.110196 c 0.884914,0.11447 1.56914,0.8692 1.56914,1.78499 0,0.99549 -0.806767,1.80241 -1.801937,1.80241 H 44.649203 c -0.884994,-0.11448 -1.569593,-0.8691 -1.569593,-1.78546 0,-0.99486 0.807131,-1.80194 1.802401,-1.80194 z m 9.136675,36.75933 c 2.586617,0.0682 4.923316,1.14168 6.629435,2.84774 1.763194,1.76307 2.853689,4.19935 2.853689,6.88974 0,2.69039 -1.090495,5.12654 -2.853689,6.88975 -1.622714,1.62271 -3.815934,2.67302 -6.251818,2.83077 -2.585606,-0.0686 -4.921634,-1.14156 -6.627141,-2.84728 -1.763549,-1.7632 -2.854153,-4.1998 -2.854153,-6.8902 0,-2.69039 1.090604,-5.12621 2.854153,-6.88928 1.62211,-1.62224 3.814509,-2.67305 6.249524,-2.83124 z"
       inkscape:connector-curvature="0" />
    <path
       inkscape:connector-curvature="0"
       d="m 82.052441,72.841374 v 0.139777 c -0.874175,0.203168 -1.656989,0.649006 -2.271219,1.263466 -0.855327,0.85502 -1.386284,2.036487 -1.386284,3.337639 V 185.48456 c 0,0.74509 0.303532,1.42126 0.792365,1.91009 0.488816,0.48883 1.165333,0.79237 1.910546,0.79237 h 34.636091 v -0.0165 h 0.95413 c 0.74522,0 1.42204,-0.30353 1.91102,-0.79235 0.48867,-0.48884 0.79236,-1.165 0.79236,-1.9101 V 77.565752 c 0,-1.301143 -0.53096,-2.483071 -1.38629,-3.338091 -0.61413,-0.614354 -1.39721,-1.059786 -2.27122,-1.263011 v -0.106776 h -0.68697 c -0.12553,-0.01009 -0.25184,-0.01649 -0.3799,-0.01649 z m 7.93782,21.922102 h 18.110159 c 0.8849,0.114515 1.56914,0.869209 1.56914,1.784981 0,0.995191 -0.80677,1.80241 -1.80194,1.80241 H 89.758375 c -0.885452,-0.114071 -1.570512,-0.869057 -1.570512,-1.785445 0,-0.994877 0.807131,-1.801946 1.802398,-1.801946 z m 0,12.077024 H 108.0995 c 0.88536,0.11407 1.57006,0.86906 1.57006,1.78544 0,0.99519 -0.80677,1.80196 -1.80194,1.80196 H 89.757453 c -0.884991,-0.11447 -1.56959,-0.86892 -1.56959,-1.78499 0,-0.99519 0.807131,-1.80241 1.802398,-1.80241 z m 0,12.07745 h 18.110159 c 0.8849,0.11447 1.56914,0.8692 1.56914,1.78498 0,0.99549 -0.80677,1.80241 -1.80194,1.80241 H 89.757453 c -0.884991,-0.11448 -1.56959,-0.86909 -1.56959,-1.78545 0,-0.99487 0.807131,-1.80194 1.802398,-1.80194 z m 9.136645,36.75933 c 2.586594,0.0682 4.923304,1.14167 6.629424,2.84774 1.76319,1.76307 2.85369,4.19934 2.85369,6.88974 0,2.69039 -1.0905,5.12654 -2.85369,6.88974 -1.62272,1.62272 -3.81594,2.67303 -6.251817,2.83078 -2.585584,-0.0686 -4.921599,-1.14156 -6.6271,-2.84728 -1.76355,-1.76321 -2.854153,-4.19981 -2.854153,-6.8902 0,-2.69039 1.090603,-5.12621 2.854153,-6.88928 1.622105,-1.62225 3.81449,-2.67306 6.249493,-2.83124 z"
       style="fill:#e25458;fill-opacity:1;fill-rule:evenodd;stroke:none;stroke-width:0.031285"
       id="path4227-4" />
    <path
       id="path4227-4-1"
       style="fill:#cccccc;fill-opacity:1;fill-rule:evenodd;stroke:none;stroke-width:0.031285"
       d="m 123.06898,75.760275 0.0293,0.136659 c -0.81203,0.38221 -1.48376,0.982494 -1.95527,1.712238 -0.6567,1.015566 -0.92772,2.282187 -0.65449,3.554328 l 22.65871,105.49636 c 0.15647,0.72849 0.59523,1.32583 1.17581,1.70112 0.58057,0.37527 1.30574,0.52999 2.03433,0.3735 l 33.86385,-7.27335 -0.004,-0.0161 0.93285,-0.20036 c 0.7286,-0.15649 1.32659,-0.59538 1.70202,-1.17599 0.37513,-0.58055 0.53005,-1.30541 0.37358,-2.0339 L 160.56755,72.53838 c -0.27323,-1.272132 -1.04054,-2.316209 -2.05635,-2.972552 -0.72944,-0.471692 -1.5886,-0.742751 -2.4858,-0.757909 l -0.0224,-0.104397 -0.67165,0.144258 c -0.12485,0.01649 -0.24969,0.03676 -0.37489,0.06365 z m 12.36433,19.766381 17.70638,-3.803006 c 0.88922,-0.07387 1.71668,0.520315 1.90899,1.415676 0.20898,0.973002 -0.41029,1.931638 -1.38327,2.140617 l -17.70549,3.802818 c -0.88967,0.0744 -1.71799,-0.51989 -1.91043,-1.415845 -0.20892,-0.972692 0.41074,-1.931254 1.38382,-2.14026 z m 2.53607,11.807754 17.70549,-3.80285 c 0.88957,-0.0744 1.71755,0.51998 1.90999,1.41595 0.20898,0.973 -0.41039,1.9312 -1.38337,2.14018 l -17.7064,3.80301 c -0.88929,0.0739 -1.71706,-0.51994 -1.90943,-1.41559 -0.20898,-0.97299 0.41064,-1.9317 1.38372,-2.1407 z m 2.53618,11.80815 17.70638,-3.80301 c 0.88922,-0.0739 1.71669,0.5203 1.90899,1.41567 0.20905,0.9733 -0.41028,1.93164 -1.38326,2.14062 l -17.7064,3.80301 c -0.8893,0.0739 -1.7171,-0.52011 -1.90952,-1.41604 -0.20892,-0.97269 0.41074,-1.93125 1.38381,-2.14025 z m 16.65214,34.02107 c 2.54327,-0.4765 5.05329,0.0824 7.07962,1.3921 2.09412,1.35351 3.6719,3.50647 4.23687,6.13687 0.56496,2.6304 0.0104,5.24123 -1.34327,7.33538 -1.24577,1.92729 -3.16953,3.41475 -5.51798,4.08049 -2.54237,0.47585 -5.05162,-0.0826 -7.07727,-1.39214 -2.09449,-1.35355 -3.67244,-3.50681 -4.23741,-6.13722 -0.56496,-2.63039 -0.0102,-5.24093 1.34382,-7.33502 1.24527,-1.9267 3.16812,-3.41447 5.51562,-4.08046 z"
       inkscape:connector-curvature="0" />
  </g>
</svg>
